<svg width="14" height="14" viewBox="0 0 14 14" fill="none" xmlns="http://www.w3.org/2000/svg">
<path d="M7 4.37497C7.36003 4.37497 7.69954 4.44333 8.01855 4.58005C8.33757 4.71677 8.61556 4.90362 8.85254 5.14059C9.08952 5.37757 9.27865 5.65785 9.41992 5.98141C9.5612 6.30498 9.62956 6.6445 9.625 6.99997C9.625 7.36455 9.55664 7.70407 9.41992 8.01852C9.2832 8.33298 9.09635 8.61097 8.85938 8.85251C8.6224 9.09405 8.34212 9.28317 8.01855 9.41989C7.69499 9.55661 7.35547 9.62497 7 9.62497C6.63542 9.62497 6.2959 9.55661 5.98145 9.41989C5.66699 9.28317 5.389 9.09632 5.14746 8.85934C4.90592 8.62237 4.7168 8.34437 4.58008 8.02536C4.44336 7.70635 4.375 7.36455 4.375 6.99997C4.375 6.63994 4.44336 6.30043 4.58008 5.98141C4.7168 5.6624 4.90365 5.38441 5.14062 5.14743C5.3776 4.91045 5.6556 4.72132 5.97461 4.58005C6.29362 4.43877 6.63542 4.37041 7 4.37497Z" fill="#DEDEDE"/>
</svg>
