<svg width="28" height="28" viewBox="0 0 28 28" fill="none" xmlns="http://www.w3.org/2000/svg">
<path d="M12.1401 0.534686H12.3472L12.3801 0.501784C18.704 0.611728 23.8149 5.79042 23.8149 12.1401C23.8149 14.1267 23.2518 16.0215 22.3508 17.6567L22.127 18.0627L22.5151 18.3165C22.6863 18.4284 22.8454 18.5577 22.99 18.7024L22.9901 18.7024L26.4587 22.171L26.4691 22.1814L26.4801 22.1912C26.7896 22.4662 27.0396 22.8016 27.2147 23.1767C27.3899 23.5519 27.4865 23.9588 27.4987 24.3726C27.5109 24.7865 27.4383 25.1984 27.2856 25.5832C27.1328 25.968 26.9029 26.3175 26.6102 26.6102C26.3175 26.9029 25.968 27.1328 25.5832 27.2856C25.1984 27.4383 24.7865 27.5109 24.3726 27.4987C23.9588 27.4865 23.5519 27.3899 23.1767 27.2147C22.8016 27.0396 22.4662 26.7896 22.1912 26.4801L22.1814 26.4691L22.171 26.4587L18.7024 22.9901L18.6862 22.9738L18.6684 22.9591C18.5282 22.8426 18.399 22.7134 18.2825 22.5732L18.0185 22.2555L17.6567 22.4548C16.0375 23.347 14.1099 23.8149 12.1401 23.8149C5.72184 23.8149 0.5 18.593 0.5 12.1748C0.5 5.75653 5.72184 0.534686 12.1401 0.534686ZM12.1401 3.00328H11.933L11.896 3.04027C6.8968 3.15005 2.93391 7.18197 2.93391 12.2095C2.93391 17.307 7.00791 21.381 12.1054 21.381C14.4774 21.381 16.6804 20.5414 18.3037 19.0657L18.3295 19.0422L18.3519 19.0153C18.4684 18.8751 18.5976 18.7459 18.7378 18.6294L18.7555 18.6147L18.7718 18.5984L18.8759 18.4943L18.882 18.4882L18.8878 18.4819C20.4344 16.8249 21.3116 14.5857 21.3116 12.1748C21.3116 7.07729 17.2376 3.00328 12.1401 3.00328Z" fill="#74B18F" stroke="#74B18F"/>
</svg>
