<svg width="28" height="28" viewBox="0 0 28 28" fill="none" xmlns="http://www.w3.org/2000/svg">
<path d="M10.7961 5.11244L11.2479 4.97689L11.4307 4.54198L12.9189 1H15.0811L16.5693 4.54198L16.7229 4.90743L17.0851 5.06843C17.2292 5.13245 17.3838 5.20562 17.552 5.28528L17.5577 5.28801C17.7196 5.36469 17.8945 5.44755 18.0627 5.52229L18.4577 5.69785L18.8562 5.53041L22.3914 4.04502L23.955 5.60859L22.4696 9.14381L22.2813 9.59192L22.5174 10.0168C22.6828 10.3146 22.8216 10.5996 22.8967 10.825L23.0401 11.255L23.458 11.4307L27 12.9189V15.0811L23.458 16.5693L23.0926 16.7229L22.9316 17.0851C22.8675 17.2292 22.7944 17.3838 22.7147 17.552L22.712 17.5578C22.6353 17.7196 22.5524 17.8946 22.4777 18.0627L22.3022 18.4577L22.4696 18.8562L23.955 22.3914L22.3914 23.955L18.8562 22.4696L18.4081 22.2813L17.9832 22.5174C17.7886 22.6255 17.5882 22.7124 17.3498 22.8158C17.2667 22.8518 17.1789 22.8899 17.0851 22.9316L16.7229 23.0926L16.5693 23.458L15.0811 27H12.9189L11.4307 23.458L11.2686 23.0723L10.8801 22.9169C10.7407 22.8611 10.6016 22.7957 10.4443 22.7192C10.4169 22.7059 10.3883 22.6919 10.3588 22.6774C10.2294 22.6141 10.0821 22.5421 9.93731 22.4777L9.54231 22.3022L9.14381 22.4696L5.60859 23.955L4.04502 22.3914L5.53041 18.8562L5.70839 18.4326L5.50291 18.0216C5.32672 17.6692 5.20515 17.425 5.08309 17.1199L4.9277 16.7314L4.54198 16.5693L1 15.0811V12.9189L4.54198 11.4307L4.9277 11.2686L5.08309 10.8801C5.20515 10.575 5.32672 10.3308 5.50291 9.97839L5.70839 9.56742L5.53041 9.14381L4.04502 5.60859L5.60859 4.04502L9.14381 5.53041L9.59192 5.71869L10.0168 5.48264C10.3463 5.29958 10.5676 5.18099 10.7961 5.11244ZM20.2369 13.9651C20.2369 10.515 17.45 7.72818 14 7.72818C10.55 7.72818 7.76309 10.515 7.76309 13.9651C7.76309 17.4151 10.55 20.202 14 20.202C17.45 20.202 20.2369 17.4151 20.2369 13.9651Z" fill="#74B18F" stroke="#74B18F" stroke-width="2"/>
</svg>
