<svg width="28" height="24" viewBox="0 0 28 24" fill="none" xmlns="http://www.w3.org/2000/svg">
<path d="M15 7.06494C15 5.39351 15.6823 3.92914 16.7673 2.84187C17.8978 1.7441 19.3681 1.06494 21 1.06494C22.6714 1.06494 24.1358 1.74727 25.2231 2.83223C26.3208 3.96274 27 5.43302 27 7.06494C27 8.73884 26.3157 10.2051 25.2279 11.2928L14 22.5207L2.77713 11.2979C1.67924 10.1673 1 8.69696 1 7.06494C1 5.39352 1.68232 3.92916 2.76727 2.84188C3.89778 1.74411 5.36807 1.06494 7 1.06494C8.67143 1.06494 10.1358 1.74727 11.2231 2.83223C12.3208 3.96274 13 5.43302 13 7.06494H14H15Z" fill="#74B18F" stroke="#74B18F" stroke-width="2"/>
</svg>
