<svg width="23" height="24" viewBox="0 0 23 24" fill="none" xmlns="http://www.w3.org/2000/svg">
<path d="M10.6428 0.0629748C10.3588 0.0639371 10.0448 0.202515 9.75819 0.513352L4.69908 6.73875H0.884615C0.397192 6.73875 0 7.17084 0 7.70109V15.3998C0 15.9301 0.397192 16.3622 0.884615 16.3622H4.69996L9.73077 22.5577C10.6154 23.5201 11.5 23.0274 11.5 21.7157V1.23415C11.5 0.472933 11.117 0.0581631 10.6428 0.0610501V0.0629748ZM17.0563 1.98766C16.8681 2.02337 16.6957 2.12435 16.5646 2.27552C16.4336 2.42668 16.3511 2.61992 16.3294 2.82633C16.3077 3.03275 16.348 3.24126 16.4442 3.42071C16.5405 3.60015 16.6876 3.74089 16.8634 3.82189C18.1794 4.54165 19.2852 5.646 20.0566 7.01109C20.828 8.37619 21.2346 9.94806 21.2308 11.5505C21.2308 14.9418 19.4615 17.8538 16.8625 19.279C16.7443 19.3238 16.6361 19.3954 16.5451 19.489C16.4542 19.5827 16.3826 19.6963 16.335 19.8223C16.2874 19.9483 16.2649 20.0839 16.2691 20.22C16.2733 20.3562 16.304 20.4898 16.3592 20.6121C16.4144 20.7344 16.4928 20.8425 16.5893 20.9294C16.6858 21.0162 16.7981 21.0798 16.9189 21.1159C17.0396 21.152 17.166 21.1598 17.2898 21.1388C17.4135 21.1177 17.5317 21.0684 17.6366 20.9939C20.815 19.2492 23 15.677 23 11.5505C23 7.42394 20.8141 3.85172 17.6366 2.10699C17.4852 2.01508 17.3123 1.97358 17.1394 1.98766C17.1117 1.98624 17.084 1.98624 17.0563 1.98766ZM14.9553 5.71578C14.7648 5.731 14.584 5.81286 14.4398 5.94915C14.2957 6.08543 14.1959 6.26881 14.1555 6.47188C14.1151 6.67494 14.1362 6.88678 14.2156 7.07573C14.295 7.26469 14.4285 7.4206 14.5962 7.52017C15.9611 8.44306 16.8077 9.90486 16.8077 11.5505C16.8077 13.2076 15.9478 14.6887 14.5687 15.6106C14.4604 15.6721 14.3649 15.7573 14.2884 15.8609C14.2118 15.9646 14.1558 16.0843 14.1239 16.2126C14.092 16.341 14.0849 16.4751 14.1031 16.6066C14.1212 16.738 14.1642 16.864 14.2293 16.9765C14.2944 17.089 14.3802 17.1856 14.4813 17.2602C14.5824 17.3349 14.6967 17.3859 14.8169 17.4101C14.937 17.4343 15.0605 17.4311 15.1795 17.4008C15.2985 17.3705 15.4104 17.3138 15.5082 17.2341C17.3393 16.0119 18.5769 13.9332 18.5769 11.5505C18.5769 9.18214 17.35 7.09193 15.5356 5.86687C15.3874 5.76386 15.2143 5.71125 15.0385 5.71578C15.0108 5.71436 14.983 5.71436 14.9553 5.71578Z" fill="#DEDEDE"/>
</svg>
